<svg width="106.99" height="26.78" version="1.1" viewBox="0 0 28.309 7.0854" xmlns="http://www.w3.org/2000/svg">
 <g transform="translate(.16021 -289.95)">
  <g fill="#fff" stroke-width=".20178" aria-label="DeltaRCM">
   <path d="m3.7836 292.78q0 1.1413-0.62109 1.7466-0.61794 0.60217-1.7813 0.60217h-1.2769v-4.6093h1.4124q1.0751 0 1.671 0.59587 0.59587 0.59587 0.59587 1.6647zm-0.5675 0.0189q0-0.90169-0.454-1.3588-0.45084-0.45715-1.3431-0.45715h-0.77873v3.6824h0.65262q0.95844 0 1.4408-0.46976 0.48237-0.47292 0.48237-1.3967z"/>
   <path d="m5.9277 295.19q-0.76612 0-1.2107-0.46661-0.44139-0.46661-0.44139-1.2958 0-0.83548 0.40986-1.3273 0.41301-0.49183 1.1066-0.49183 0.64947 0 1.0278 0.42877 0.37833 0.42562 0.37833 1.1255v0.33104h-2.3803q0.015764 0.60848 0.30582 0.92375 0.29321 0.31528 0.82287 0.31528 0.55804 0 1.1035-0.23331v0.46661q-0.27744 0.11981-0.52651 0.17025-0.24592 0.0536-0.59587 0.0536zm-0.14187-3.1433q-0.41616 0-0.66523 0.27114-0.24592 0.27113-0.29005 0.75035h1.8065q0-0.49498-0.22069-0.75666-0.22069-0.26483-0.63055-0.26483z"/>
   <path d="m8.3491 295.13h-0.52336v-4.9057h0.52336z"/>
   <path d="m10.32 294.76q0.13872 0 0.26798-0.0189 0.12926-0.0221 0.20493-0.0441v0.4004q-0.08512 0.041-0.25222 0.0662-0.16394 0.0284-0.29636 0.0284-1.0026 0-1.0026-1.0562v-2.0556h-0.49498v-0.25222l0.49498-0.21754 0.22069-0.73775h0.30266v0.8008h1.0026v0.40671h-1.0026v2.0335q0 0.31212 0.14818 0.47921 0.14818 0.1671 0.40671 0.1671z"/>
   <path d="m13.35 295.13-0.10404-0.49183h-0.02522q-0.25853 0.32474-0.51705 0.44139-0.25537 0.1135-0.64001 0.1135-0.5139 0-0.80711-0.26483-0.29005-0.26483-0.29005-0.75351 0-1.0467 1.6741-1.0972l0.58641-0.0189v-0.21439q0-0.4067-0.17656-0.59902-0.1734-0.19547-0.55804-0.19547-0.43193 0-0.97736 0.26483l-0.16079-0.4004q0.25537-0.13872 0.55804-0.21754 0.30582-0.0788 0.61164-0.0788 0.61794 0 0.9143 0.27429 0.29951 0.27429 0.29951 0.87962v2.3583zm-1.1823-0.36887q0.48868 0 0.76612-0.26798 0.2806-0.26799 0.2806-0.75036v-0.31212l-0.52336 0.0221q-0.62425 0.0221-0.90169 0.19547-0.27429 0.17025-0.27429 0.53281 0 0.28375 0.17025 0.43193 0.1734 0.14818 0.48237 0.14818z"/>
   <path d="m15.56 292.56h0.31528q0.46346 0 0.68415-0.15448 0.22069-0.15449 0.22069-0.48553 0-0.32788-0.227-0.46661-0.22385-0.13872-0.69676-0.13872h-0.29636zm0 0.7945v1.7687h-0.97735v-4.6093h1.3431q0.93952 0 1.3904 0.34365 0.45084 0.3405 0.45084 1.0373 0 0.40671-0.22385 0.72513-0.22385 0.31528-0.6337 0.49499 1.0404 1.5543 1.3557 2.0083h-1.0845l-1.1003-1.7687z"/>
   <path d="m20.803 291.26q-0.55173 0-0.8544 0.41616-0.30266 0.41301-0.30266 1.1539 0 1.5417 1.1571 1.5417 0.48552 0 1.176-0.24276v0.81971q-0.5675 0.23646-1.2674 0.23646-1.0057 0-1.5385-0.60848-0.53282-0.61164-0.53282-1.7529 0-0.71883 0.26168-1.258 0.26168-0.54227 0.75036-0.82917 0.49183-0.29006 1.1508-0.29006 0.67154 0 1.3494 0.32474l-0.31528 0.79449q-0.25853-0.12295-0.5202-0.21438-0.26168-0.0914-0.5139-0.0914z"/>
   <path d="m24.908 295.13-1.1098-3.6162h-0.02838q0.0599 1.1035 0.0599 1.4723v2.1439h-0.87331v-4.6093h1.3305l1.0909 3.5248h0.01892l1.1571-3.5248h1.3305v4.6093h-0.91115v-2.1817q0-0.15449 0.0032-0.35627 0.0063-0.20177 0.04414-1.0719h-0.02838l-1.1886 3.6099z"/>
  </g>
 </g>
</svg>
