<svg width="50" height="50" version="1.1" viewBox="0 0 13.23 13.23" xmlns="http://www.w3.org/2000/svg">
<g transform="translate(-6.56 -264.8)">
<path d="m32.45 269.4s0 0.8748-0.2019 0.942c-0.2019 0.0674-0.6439-0.0486-0.7182 0.0615-0.05315 0.0787 0.07901 1.183-0.1901 1.318-0.2692 0.1345-0.3701 0.2692-0.942 0.3701-0.5719 0.1009-0.471-0.1009-0.6729 0.3364-0.2019 0.4374-1.11 0.5383-1.413 0.7738-0.3028 0.2355-0.942 0.3028-1.077 0.8411-0.1346 0.5383 0.5047 0.471-0.2692 0.8747-0.7738 0.4038-1.514 0.4374-1.682 0.2019-0.1682-0.2355-0.03364 0.6729-0.2355 0.942-0.2019 0.2691-0.2019 0.2355-0.8075 0.471-0.6056 0.2355-0.7738 0.3028-0.9757 0.3028-0.2019 0-1.581-0.3364-1.649-0.0674-0.0673 0.2692 0.1682 0.6729-0.3701 0.9084-0.5383 0.2355-0.5047 0.3028-0.8411 0.0672-0.3364-0.2355-0.4374-0.942-0.6392-0.2355-0.2019 0.7065 0.2355 1.514-0.6392 1.009-0.8747-0.5047-0.8075 0-1.11-0.6056-0.3028-0.6056-0.06728-0.5047-0.4037-0.8747-0.3364-0.3701-0.471 0.0674-0.5047-0.572-0.03364-0.6392 0.03364-0.5719-0.1682-1.009-0.2019-0.4374-0.2019-1.312-0.8075-0.8748-0.6056 0.4374-0.6729 0.101-1.178 0.3028-0.5047 0.2019-0.1682 1.043-0.8747 0.9084-0.7065-0.1345-1.144-0.3701-1.144-0.3701s-0.1346-0.1009-0.2355-0.6056c-0.1009-0.5047-0.3028-0.572-0.3701-0.8411-0.06729-0.2692 0.2355 0-0.03365-0.5383-0.2692-0.5383-0.03364-0.6729-0.5047-0.6729-0.471 0-1.077-0.0336-1.514 0.0336-0.4374 0.0674-0.8075 0.4037-0.942-0.2019-0.1346-0.6056 0.2355-1.346 0.06729-1.514-0.1682-0.1683-0.5383-0.471-1.11-0.9084-0.5719-0.4374-1.144-0.3028-0.9757-0.8748 0.1682-0.5719 0.2355-0.5719-0.03364-0.8411-0.2692-0.2692-0.4037-0.3364-0.4037-0.3364v-2.097h11.76l0.01679-1.182h2.389v1.182h11.39z" fill="#b3b3b3"/>
</g>
</svg>
