<svg width="50" height="50" version="1.1" viewBox="0 0 13.23 13.23" xmlns="http://www.w3.org/2000/svg">
<g transform="translate(-6.56 -264.8)">
<path transform="matrix(.2646 0 0 .2646 6.56 264.8)" d="m45.7 0.4004-0.0625 4.469h-44.44v7.928s0.5081 0.2542 1.525 1.271c1.017 1.017 0.7627 1.016 0.127 3.178-0.6358 2.162 1.526 1.654 3.688 3.307 2.162 1.653 3.56 2.798 4.195 3.434 0.6358 0.6358-0.7625 3.434-0.2539 5.723 0.5086 2.289 1.907 1.016 3.561 0.7617 1.653-0.254 3.942-0.127 5.723-0.127 1.78 0 0.889 0.5104 1.906 2.545 1.017 2.035-0.1254 1.016 0.1289 2.033 0.2543 1.017 1.017 1.272 1.398 3.18 0.3815 1.907 0.8887 2.289 0.8887 2.289s1.654 0.89 4.324 1.398c2.67 0.5086 1.399-2.671 3.307-3.434 1.907-0.7629 2.16 0.5085 4.449-1.145 2.289-1.653 2.29 1.654 3.053 3.307 0.7629 1.653 0.5096 1.398 0.6367 3.814 0.1272 2.416 0.6347 0.7633 1.906 2.162 1.272 1.399 0.381 1.016 1.525 3.305 1.144 2.289 0.8912 0.3816 4.197 2.289 3.306 1.907 1.653-1.144 2.416-3.814 0.763-2.67 1.144 5.47e-4 2.416 0.8906 1.272 0.8905 1.143 0.6362 3.178-0.2539 2.035-0.8901 1.146-2.416 1.4-3.434 0.2543-1.017 5.468 0.2539 6.23 0.2539 0.7629 0 1.399-0.2525 3.688-1.143 2.289-0.8901 2.288-0.764 3.051-1.781 0.763-1.017 0.2548-4.451 0.8906-3.561 0.6358 0.8901 3.433 0.7623 6.357-0.7637 2.925-1.526 0.5089-1.27 1.018-3.305 0.5086-2.034 2.924-2.29 4.068-3.18 1.144-0.8901 4.579-1.271 5.342-2.924 0.7629-1.653 0.3813-0.89 2.543-1.271 2.162-0.3815 2.543-0.892 3.561-1.4 1.017-0.5086 0.5179-4.683 0.7188-4.98 0.281-0.4161 1.952 0.02232 2.715-0.2324 0.763-0.2543 0.7617-3.561 0.7617-3.561l-0.07422-12.76h-43.03v-4.469zm-21.52 10.55c1.486 0 2.575 0.4451 3.27 1.334 0.6944 0.8889 1.043 2.069 1.043 3.541 0 1.472-0.3485 2.66-1.043 3.562-0.6944 0.9028-1.783 1.355-3.27 1.355-0.8889 0-1.862-0.4167-2.918-1.25v4.645h-1.688v-12.96h1.688v1.188c0.5139-0.4722 0.9874-0.8264 1.418-1.062 0.4306-0.2361 0.9306-0.3555 1.5-0.3555zm5.52 0.2305h1.938l2.918 7 2.707-7h1.812l-4.457 11.33c-0.2222 0.5694-0.493 1.001-0.8125 1.293-0.3194 0.2917-0.793 0.4375-1.418 0.4375-1.111 0-1.944-0.5625-2.5-1.688l1.312-0.6875c0.2917 0.5972 0.6819 0.8945 1.168 0.8945 0.1944 0 0.3611-0.1041 0.5-0.3125 0.1389-0.1945 0.2847-0.507 0.4375-0.9375l0.375-1.062zm-5.707 0.9375c-0.9306 0-1.618 0.3542-2.062 1.062s-0.668 1.589-0.668 2.645c0 1.056 0.2235 1.938 0.668 2.646 0.4444 0.6944 1.132 1.041 2.062 1.041 0.9028 0 1.575-0.3466 2.02-1.041 0.4583-0.7083 0.6875-1.591 0.6875-2.646 0-1.042-0.2292-1.917-0.6875-2.625-0.4444-0.7222-1.117-1.082-2.02-1.082z" fill="#b3b3b3"/>
</g>
</svg>
