<?xml version="1.0" encoding="UTF-8" standalone="no"?>
<!-- Created with Inkscape (http://www.inkscape.org/) -->

<svg
   xmlns:dc="http://purl.org/dc/elements/1.1/"
   xmlns:cc="http://creativecommons.org/ns#"
   xmlns:rdf="http://www.w3.org/1999/02/22-rdf-syntax-ns#"
   xmlns:svg="http://www.w3.org/2000/svg"
   xmlns="http://www.w3.org/2000/svg"
   xmlns:sodipodi="http://sodipodi.sourceforge.net/DTD/sodipodi-0.dtd"
   xmlns:inkscape="http://www.inkscape.org/namespaces/inkscape"
   width="50"
   height="50"
   viewBox="0 0 13.229165 13.229167"
   version="1.1"
   id="svg8"
   inkscape:version="0.92.4 (unknown)"
   sodipodi:docname="DeltaRCM_logo.svg">
  <defs
     id="defs2" />
  <sodipodi:namedview
     id="base"
     pagecolor="#ffffff"
     bordercolor="#666666"
     borderopacity="1.0"
     inkscape:pageopacity="0.0"
     inkscape:pageshadow="2"
     inkscape:zoom="11.2"
     inkscape:cx="43.677015"
     inkscape:cy="24.172258"
     inkscape:document-units="px"
     inkscape:current-layer="layer1"
     showgrid="false"
     units="px"
     inkscape:window-width="1871"
     inkscape:window-height="1025"
     inkscape:window-x="49"
     inkscape:window-y="27"
     inkscape:window-maximized="1"
     fit-margin-top="0"
     fit-margin-left="0"
     fit-margin-right="0"
     fit-margin-bottom="0"
     showguides="true"
     inkscape:guide-bbox="true" />
  <metadata
     id="metadata5">
    <rdf:RDF>
      <cc:Work
         rdf:about="">
        <dc:format>image/svg+xml</dc:format>
        <dc:type
           rdf:resource="http://purl.org/dc/dcmitype/StillImage" />
        <dc:title></dc:title>
      </cc:Work>
    </rdf:RDF>
  </metadata>
  <g
     inkscape:label="Layer 1"
     inkscape:groupmode="layer"
     id="layer1"
     transform="translate(-6.5597573,-264.75053)">
    <path
       style="fill:#b3b3b3;fill-opacity:1;stroke:none;stroke-width:0.25279602px;stroke-linecap:butt;stroke-linejoin:miter;stroke-opacity:1"
       d="m 19.381344,277.91727 c -0.129872,-0.03 -0.267241,-0.0941 -0.366316,-0.13292 -0.892154,-0.34944 -1.427545,0 -1.714829,-0.57458 -0.287283,-0.57456 -0.06383,-0.47881 -0.383043,-0.82992 -0.319204,-0.35114 -0.446884,0.0639 -0.478805,-0.54266 -0.03192,-0.60648 0.03192,-0.54264 -0.159603,-0.9576 -0.191522,-0.41497 -0.191522,-1.2449 -0.766086,-0.82993 -0.574568,0.41496 -0.638409,0.0958 -1.117213,0.28727 -0.478805,0.19152 -0.159602,0.98954 -0.829927,0.86187 -0.670331,-0.12763 -1.085295,-0.35114 -1.085295,-0.35114 0,0 -0.127681,-0.0958 -0.223442,-0.57456 -0.09576,-0.47881 -0.287283,-0.54265 -0.351124,-0.798 -0.06384,-0.25537 0.223443,0 -0.03193,-0.51072 -0.255361,-0.51073 -0.03192,-0.63842 -0.478804,-0.63842 -0.446885,0 -1.02145,-0.0319 -1.4364135,0.0319 -0.4149647,0.064 -0.7660882,0.38306 -0.8937695,-0.19152 -0.1276805,-0.57455 0.2234425,-1.2768 0.063842,-1.4364 -0.1596011,-0.15968 -0.5107252,-0.44688 -1.0533707,-0.86185 -0.5426452,-0.41496 -1.0852906,-0.28727 -0.9256889,-0.82994 0.1596009,-0.54264 0.2234421,-0.54264 -0.031917,-0.79799 -0.2553628,-0.25537 -0.5578521,-0.31921 -0.5578521,-0.31921 v -1.98982 h 9.9608037 l 0.01593,-1.12175 h 2.266344 v 1.12175 c 0.337248,-0.008 0.665846,-0.0138 0.986089,-0.0174 -1e-6,12.06597 0,0 -1e-6,12.06597 0,0 -0.277707,-0.0324 -0.407579,-0.0624 z"
       id="path5764"
       inkscape:connector-curvature="0"
       sodipodi:nodetypes="zsccsscscccccsssccssccccccccz" />
  </g>
</svg>
