<?xml version="1.0" encoding="UTF-8" standalone="no"?>
<!-- Created with Inkscape (http://www.inkscape.org/) -->

<svg
   xmlns:dc="http://purl.org/dc/elements/1.1/"
   xmlns:cc="http://creativecommons.org/ns#"
   xmlns:rdf="http://www.w3.org/1999/02/22-rdf-syntax-ns#"
   xmlns:svg="http://www.w3.org/2000/svg"
   xmlns="http://www.w3.org/2000/svg"
   xmlns:sodipodi="http://sodipodi.sourceforge.net/DTD/sodipodi-0.dtd"
   xmlns:inkscape="http://www.inkscape.org/namespaces/inkscape"
   width="50"
   height="50"
   viewBox="0 0 13.229165 13.229167"
   version="1.1"
   id="svg8"
   inkscape:version="0.92.4 (unknown)"
   sodipodi:docname="DeltaRCM_logo.svg">
  <defs
     id="defs2" />
  <sodipodi:namedview
     id="base"
     pagecolor="#ffffff"
     bordercolor="#666666"
     borderopacity="1.0"
     inkscape:pageopacity="0.0"
     inkscape:pageshadow="2"
     inkscape:zoom="2.8"
     inkscape:cx="167.48387"
     inkscape:cy="12.40297"
     inkscape:document-units="mm"
     inkscape:current-layer="layer1"
     showgrid="false"
     units="px"
     inkscape:window-width="1871"
     inkscape:window-height="1025"
     inkscape:window-x="49"
     inkscape:window-y="27"
     inkscape:window-maximized="1"
     fit-margin-top="0"
     fit-margin-left="0"
     fit-margin-right="0"
     fit-margin-bottom="0"
     showguides="true"
     inkscape:guide-bbox="true" />
  <metadata
     id="metadata5">
    <rdf:RDF>
      <cc:Work
         rdf:about="">
        <dc:format>image/svg+xml</dc:format>
        <dc:type
           rdf:resource="http://purl.org/dc/dcmitype/StillImage" />
        <dc:title></dc:title>
      </cc:Work>
    </rdf:RDF>
  </metadata>
  <g
     inkscape:label="Layer 1"
     inkscape:groupmode="layer"
     id="layer1"
     transform="translate(-6.5597573,-264.75053)">
    <path
       style="fill:#b3b3b3;fill-opacity:1;stroke:none;stroke-width:0.26644665px;stroke-linecap:butt;stroke-linejoin:miter;stroke-opacity:1"
       d="m 32.445737,269.41499 c 0,0 0,0.87475 -0.201864,0.94203 -0.201863,0.0674 -0.643883,-0.0486 -0.718244,0.0615 -0.05315,0.0787 0.07901,1.18331 -0.190147,1.31787 -0.269154,0.13452 -0.370085,0.26916 -0.942031,0.3701 -0.571949,0.10094 -0.471016,-0.10094 -0.672879,0.33644 -0.201864,0.43737 -1.110253,0.53831 -1.413047,0.77381 -0.302797,0.2355 -0.942032,0.3028 -1.076607,0.84109 -0.134581,0.5383 0.504658,0.47102 -0.269152,0.87474 -0.773812,0.40375 -1.51398,0.43737 -1.682199,0.20186 -0.168222,-0.2355 -0.03364,0.67289 -0.235508,0.94205 -0.201864,0.26914 -0.201864,0.2355 -0.807455,0.47101 -0.605592,0.2355 -0.773812,0.3028 -0.975675,0.3028 -0.201864,0 -1.581266,-0.33644 -1.648555,-0.0674 -0.0673,0.26916 0.168221,0.67288 -0.370083,0.90839 -0.538304,0.2355 -0.50466,0.3028 -0.841099,0.0672 -0.33644,-0.2355 -0.437371,-0.94203 -0.639237,-0.2355 -0.201863,0.70652 0.235508,1.51397 -0.639235,1.00933 -0.874743,-0.50467 -0.807454,0 -1.110251,-0.60561 -0.302796,-0.60558 -0.06728,-0.50466 -0.403727,-0.87473 -0.33644,-0.3701 -0.471015,0.0674 -0.50466,-0.57196 -0.03364,-0.63923 0.03364,-0.57194 -0.168221,-1.00931 -0.201864,-0.43738 -0.201864,-1.31213 -0.807454,-0.87475 -0.605593,0.43737 -0.672882,0.10095 -1.17754,0.30279 -0.50466,0.20186 -0.168221,1.04297 -0.874742,0.9084 -0.706528,-0.13452 -1.1439,-0.3701 -1.1439,-0.3701 0,0 -0.134575,-0.10094 -0.235507,-0.60558 -0.100933,-0.50467 -0.302796,-0.57195 -0.370084,-0.84109 -0.06729,-0.26916 0.235508,0 -0.03365,-0.5383 -0.269151,-0.53831 -0.03364,-0.67289 -0.504659,-0.67289 -0.471016,0 -1.076607,-0.0336 -1.513978,0.0336 -0.4373722,0.0674 -0.8074559,0.40374 -0.9420318,-0.20186 -0.134575,-0.60558 0.2355081,-1.34575 0.067289,-1.51397 -0.1682194,-0.1683 -0.5383037,-0.47101 -1.1102512,-0.90839 -0.5719473,-0.43736 -1.1438948,-0.30278 -0.9756748,-0.87475 0.1682191,-0.57194 0.2355076,-0.57194 -0.03364,-0.84108 -0.269152,-0.26916 -0.403728,-0.33645 -0.403728,-0.33645 v -2.09727 H 18.634882 l 0.01679,-1.18232 h 2.388723 v 1.18232 h 11.385227 z"
       id="path5764"
       inkscape:connector-curvature="0"
       sodipodi:nodetypes="ccscscsccccsscsccsccsscscccccsssccsscccccccc" />
  </g>
</svg>
