<?xml version="1.0" encoding="UTF-8" standalone="no"?>
<!-- Created with Inkscape (http://www.inkscape.org/) -->

<svg
   xmlns:dc="http://purl.org/dc/elements/1.1/"
   xmlns:cc="http://creativecommons.org/ns#"
   xmlns:rdf="http://www.w3.org/1999/02/22-rdf-syntax-ns#"
   xmlns:svg="http://www.w3.org/2000/svg"
   xmlns="http://www.w3.org/2000/svg"
   xmlns:sodipodi="http://sodipodi.sourceforge.net/DTD/sodipodi-0.dtd"
   xmlns:inkscape="http://www.inkscape.org/namespaces/inkscape"
   width="16"
   height="16"
   viewBox="0 0 4.2333328 4.2333334"
   version="1.1"
   id="svg8"
   inkscape:version="0.92.4 (unknown)"
   sodipodi:docname="favicon.svg"
   inkscape:export-filename="/home/mass/Dropbox/stratigraphic_research/deltarcm.org/assets/favicon.png"
   inkscape:export-xdpi="96"
   inkscape:export-ydpi="96">
  <defs
     id="defs2" />
  <sodipodi:namedview
     id="base"
     pagecolor="#ffffff"
     bordercolor="#666666"
     borderopacity="1.0"
     inkscape:pageopacity="0.0"
     inkscape:pageshadow="2"
     inkscape:zoom="31.678384"
     inkscape:cx="17.10858"
     inkscape:cy="8.3756874"
     inkscape:document-units="px"
     inkscape:current-layer="layer1"
     showgrid="false"
     units="px"
     inkscape:window-width="1871"
     inkscape:window-height="1025"
     inkscape:window-x="49"
     inkscape:window-y="27"
     inkscape:window-maximized="1"
     fit-margin-top="0"
     fit-margin-left="0"
     fit-margin-right="0"
     fit-margin-bottom="0"
     showguides="true"
     inkscape:guide-bbox="true" />
  <metadata
     id="metadata5">
    <rdf:RDF>
      <cc:Work
         rdf:about="">
        <dc:format>image/svg+xml</dc:format>
        <dc:type
           rdf:resource="http://purl.org/dc/dcmitype/StillImage" />
        <dc:title></dc:title>
      </cc:Work>
    </rdf:RDF>
  </metadata>
  <g
     inkscape:label="Layer 1"
     inkscape:groupmode="layer"
     id="layer1"
     transform="translate(-6.5597573,-273.74636)">
    <path
       style="fill:#b3b3b3;fill-opacity:1;stroke:none;stroke-width:0.07990173px;stroke-linecap:butt;stroke-linejoin:miter;stroke-opacity:1"
       d="m 10.637358,277.91822 c -0.04104,-0.009 -0.08447,-0.0297 -0.115783,-0.0421 -0.281984,-0.11044 -0.451206,0 -0.5420088,-0.1816 -0.0908,-0.18161 -0.02018,-0.15134 -0.121069,-0.26232 -0.100891,-0.11099 -0.141247,0.0202 -0.151337,-0.17152 -0.01009,-0.19169 0.01009,-0.17151 -0.05045,-0.30267 -0.06053,-0.13116 -0.06053,-0.39348 -0.242138,-0.26231 -0.181605,0.13115 -0.201783,0.0303 -0.35312,0.0908 -0.151337,0.0605 -0.05045,0.31277 -0.262317,0.27242 -0.211872,-0.0404 -0.343031,-0.111 -0.343031,-0.111 0,0 -0.04036,-0.0302 -0.07062,-0.18159 -0.03027,-0.15135 -0.0908,-0.17152 -0.11098,-0.25223 -0.02018,-0.0807 0.07062,0 -0.01009,-0.16142 -0.08071,-0.16143 -0.01009,-0.20179 -0.151337,-0.20179 -0.141248,0 -0.322852,-0.01 -0.45401,0.01 -0.131159,0.0203 -0.242139,0.12107 -0.282495,-0.0605 -0.04036,-0.1816 0.07062,-0.40356 0.02018,-0.45401 -0.05045,-0.0505 -0.161426,-0.14124 -0.332941,-0.2724 -0.171515,-0.13116 -0.34303,-0.0908 -0.292585,-0.26232 0.05045,-0.17152 0.07062,-0.17152 -0.01009,-0.25223 -0.08071,-0.0807 -0.176321,-0.10089 -0.176321,-0.10089 v -0.62893 h 3.148331 l 0.005,-0.35455 h 0.7163268 v 0.35455 c 0.106596,-0.003 0.210455,-0.004 0.311675,-0.005 -10e-7,3.81372 0,0 -10e-7,3.81372 0,0 -0.08777,-0.0102 -0.128823,-0.0197 z"
       id="path5764"
       inkscape:connector-curvature="0"
       sodipodi:nodetypes="zsccsscscccccsssccssccccccccz" />
  </g>
</svg>
